<mxfile host="65bd71144e">
    <diagram id="NbBXLqIcAhi1SzONlu9C" name="Invia messaggio">
        <mxGraphModel dx="2213" dy="1183" grid="1" gridSize="10" guides="1" tooltips="1" connect="1" arrows="1" fold="1" page="1" pageScale="1" pageWidth="827" pageHeight="1169" math="0" shadow="0">
            <root>
                <mxCell id="0"/>
                <mxCell id="1" parent="0"/>
                <mxCell id="2" value="Write Message" style="html=1;verticalAlign=bottom;endArrow=block;entryX=0;entryY=0;exitX=1.017;exitY=0.062;exitDx=0;exitDy=0;exitPerimeter=0;" edge="1" parent="1" target="4">
                    <mxGeometry relative="1" as="geometry">
                        <mxPoint x="1049" y="129.68000000000006" as="sourcePoint"/>
                    </mxGeometry>
                </mxCell>
                <mxCell id="3" value="&lt;b&gt;ChatFragment&lt;/b&gt;" style="shape=umlLifeline;perimeter=lifelinePerimeter;whiteSpace=wrap;html=1;container=1;collapsible=0;recursiveResize=0;outlineConnect=0;rounded=0;shadow=0;glass=0;strokeWidth=1;verticalAlign=top;fillColor=#4ECB71;" vertex="1" parent="1">
                    <mxGeometry x="1143.83" y="50" width="90" height="1080" as="geometry"/>
                </mxCell>
                <mxCell id="4" value="" style="html=1;points=[];perimeter=orthogonalPerimeter;fillColor=#81A1C1;strokeColor=#81A1C1;" vertex="1" parent="3">
                    <mxGeometry x="40" y="80" width="10" height="180" as="geometry"/>
                </mxCell>
                <mxCell id="109" value="" style="html=1;points=[];perimeter=orthogonalPerimeter;fillColor=#81A1C1;strokeColor=#81A1C1;" vertex="1" parent="3">
                    <mxGeometry x="40" y="970" width="10" height="80" as="geometry"/>
                </mxCell>
                <mxCell id="CONxCcbmDmu2rqYqZQRP-128" value="" style="html=1;points=[];perimeter=orthogonalPerimeter;fillColor=#81A1C1;strokeColor=#81A1C1;" vertex="1" parent="3">
                    <mxGeometry x="40" y="290" width="10" height="130" as="geometry"/>
                </mxCell>
                <mxCell id="5" value="&lt;b&gt;viewModel: ChatViewModel&lt;/b&gt;" style="shape=umlLifeline;perimeter=lifelinePerimeter;whiteSpace=wrap;html=1;container=1;collapsible=0;recursiveResize=0;outlineConnect=0;rounded=0;shadow=0;glass=0;strokeWidth=1;verticalAlign=top;fillColor=#4ECB71;" vertex="1" parent="1">
                    <mxGeometry x="1563.04" y="50" width="163.17" height="1100" as="geometry"/>
                </mxCell>
                <mxCell id="6" value="" style="html=1;points=[];perimeter=orthogonalPerimeter;fillColor=#81A1C1;strokeColor=#81A1C1;" vertex="1" parent="5">
                    <mxGeometry x="76.59" y="240" width="10" height="160" as="geometry"/>
                </mxCell>
                <mxCell id="65" value="&amp;lt;&amp;lt;create&amp;gt;&amp;gt;" style="html=1;verticalAlign=bottom;endArrow=block;exitX=1.099;exitY=0.312;exitDx=0;exitDy=0;exitPerimeter=0;" edge="1" parent="5">
                    <mxGeometry relative="1" as="geometry">
                        <mxPoint x="87.57999999999993" y="309.9200000000001" as="sourcePoint"/>
                        <mxPoint x="226.96000000000004" y="310" as="targetPoint"/>
                    </mxGeometry>
                </mxCell>
                <mxCell id="107" value="" style="html=1;points=[];perimeter=orthogonalPerimeter;fillColor=#81A1C1;strokeColor=#81A1C1;" vertex="1" parent="5">
                    <mxGeometry x="76.59" y="940" width="10" height="60" as="geometry"/>
                </mxCell>
                <mxCell id="15" value="Utente registrato" style="shape=umlLifeline;participant=umlActor;perimeter=lifelinePerimeter;whiteSpace=wrap;html=1;container=1;collapsible=0;recursiveResize=0;verticalAlign=bottom;spacingTop=36;outlineConnect=0;size=40;rounded=0;shadow=0;glass=0;labelPosition=center;verticalLabelPosition=top;align=center;strokeWidth=1;perimeterSpacing=0;" vertex="1" parent="1">
                    <mxGeometry x="1040" y="50" width="20" height="1080" as="geometry"/>
                </mxCell>
                <mxCell id="16" value="" style="html=1;points=[];perimeter=orthogonalPerimeter;fillColor=#81A1C1;strokeColor=#81A1C1;" vertex="1" parent="15">
                    <mxGeometry x="5" y="40" width="10" height="1020" as="geometry"/>
                </mxCell>
                <mxCell id="52" value="&lt;i&gt;&amp;lt;&amp;lt;sealed&amp;gt;&amp;gt;&lt;br&gt;&lt;/i&gt;&lt;b&gt;ChatEvent&lt;/b&gt;" style="shape=umlLifeline;perimeter=lifelinePerimeter;whiteSpace=wrap;html=1;container=1;collapsible=0;recursiveResize=0;outlineConnect=0;rounded=0;shadow=0;glass=0;strokeWidth=1;verticalAlign=top;fillColor=#D99BFF;" vertex="1" parent="1">
                    <mxGeometry x="1420" y="200" width="150" height="1000" as="geometry"/>
                </mxCell>
                <mxCell id="54" value="&lt;i&gt;&amp;lt;&amp;lt;create&amp;gt;&amp;gt;&lt;/i&gt;" style="html=1;verticalAlign=bottom;endArrow=block;exitX=1.086;exitY=0.11;exitDx=0;exitDy=0;exitPerimeter=0;" edge="1" parent="1">
                    <mxGeometry x="0.2011" relative="1" as="geometry">
                        <mxPoint x="1194.6899999999998" y="219.79999999999995" as="sourcePoint"/>
                        <mxPoint x="1420" y="220" as="targetPoint"/>
                        <mxPoint as="offset"/>
                    </mxGeometry>
                </mxCell>
                <mxCell id="57" value="onEvent(ChatEvent.UpdateMessage(editMessage.text))" style="html=1;verticalAlign=bottom;endArrow=block;exitX=0.968;exitY=0.905;exitDx=0;exitDy=0;exitPerimeter=0;" edge="1" parent="1" source="4">
                    <mxGeometry relative="1" as="geometry">
                        <mxPoint x="1294.37" y="339.44000000000005" as="sourcePoint"/>
                        <mxPoint x="1640" y="293" as="targetPoint"/>
                    </mxGeometry>
                </mxCell>
                <mxCell id="62" value="&lt;b&gt;viewModelScope: CoroutineScope&lt;/b&gt;" style="shape=umlLifeline;perimeter=lifelinePerimeter;whiteSpace=wrap;html=1;container=1;collapsible=0;recursiveResize=0;outlineConnect=0;rounded=0;shadow=0;glass=0;strokeWidth=1;verticalAlign=top;fillColor=#4ECB71;" vertex="1" parent="1">
                    <mxGeometry x="1790" y="340" width="210" height="810" as="geometry"/>
                </mxCell>
                <mxCell id="66" value="" style="html=1;points=[];perimeter=orthogonalPerimeter;fillColor=#81A1C1;strokeColor=#81A1C1;" vertex="1" parent="62">
                    <mxGeometry x="100" y="70" width="10" height="630" as="geometry"/>
                </mxCell>
                <mxCell id="71" value="&lt;b&gt;client: StompClient&lt;/b&gt;" style="shape=umlLifeline;perimeter=lifelinePerimeter;whiteSpace=wrap;html=1;container=1;collapsible=0;recursiveResize=0;outlineConnect=0;rounded=0;shadow=0;glass=0;strokeWidth=1;verticalAlign=top;" vertex="1" parent="1">
                    <mxGeometry x="2060" y="60" width="160" height="1070" as="geometry"/>
                </mxCell>
                <mxCell id="74" value="" style="html=1;points=[];perimeter=orthogonalPerimeter;fillColor=#81A1C1;strokeColor=#81A1C1;" vertex="1" parent="71">
                    <mxGeometry x="75" y="330" width="10" height="100" as="geometry"/>
                </mxCell>
                <mxCell id="77" value="&amp;lt;&amp;lt;create&amp;gt;&amp;gt;" style="html=1;verticalAlign=bottom;endArrow=block;" edge="1" parent="71" source="74">
                    <mxGeometry relative="1" as="geometry">
                        <mxPoint x="100" y="390" as="sourcePoint"/>
                        <mxPoint x="200" y="390" as="targetPoint"/>
                    </mxGeometry>
                </mxCell>
                <mxCell id="94" value="update(shouldScrollToBottom = false)" style="html=1;verticalAlign=bottom;endArrow=block;exitX=1.209;exitY=0.643;exitDx=0;exitDy=0;exitPerimeter=0;" edge="1" parent="71">
                    <mxGeometry x="0.4118" relative="1" as="geometry">
                        <mxPoint x="-160" y="600.06" as="sourcePoint"/>
                        <mxPoint x="690" y="600" as="targetPoint"/>
                        <mxPoint as="offset"/>
                    </mxGeometry>
                </mxCell>
                <mxCell id="73" value="connect(BASE_WS_URL: String)" style="html=1;verticalAlign=bottom;endArrow=block;" edge="1" parent="1">
                    <mxGeometry relative="1" as="geometry">
                        <mxPoint x="1900" y="430" as="sourcePoint"/>
                        <mxPoint x="2135" y="430" as="targetPoint"/>
                    </mxGeometry>
                </mxCell>
                <mxCell id="75" value="&lt;b&gt;session: StompSession&lt;/b&gt;" style="shape=umlLifeline;perimeter=lifelinePerimeter;whiteSpace=wrap;html=1;container=1;collapsible=0;recursiveResize=0;outlineConnect=0;rounded=0;shadow=0;glass=0;strokeWidth=1;verticalAlign=top;" vertex="1" parent="1">
                    <mxGeometry x="2260" y="430" width="160" height="700" as="geometry"/>
                </mxCell>
                <mxCell id="83" value="" style="html=1;points=[];perimeter=orthogonalPerimeter;fillColor=#81A1C1;strokeColor=#81A1C1;" vertex="1" parent="75">
                    <mxGeometry x="75" y="100" width="10" height="100" as="geometry"/>
                </mxCell>
                <mxCell id="80" value="&lt;b&gt;jsonStompSession: &lt;br&gt;StompSessionWithKxSerialization&lt;/b&gt;" style="shape=umlLifeline;perimeter=lifelinePerimeter;whiteSpace=wrap;html=1;container=1;collapsible=0;recursiveResize=0;outlineConnect=0;rounded=0;shadow=0;glass=0;strokeWidth=1;verticalAlign=top;" vertex="1" parent="1">
                    <mxGeometry x="2470" y="560" width="210" height="570" as="geometry"/>
                </mxCell>
                <mxCell id="89" value="" style="html=1;points=[];perimeter=orthogonalPerimeter;fillColor=#81A1C1;strokeColor=#81A1C1;" vertex="1" parent="80">
                    <mxGeometry x="100" y="120" width="10" height="120" as="geometry"/>
                </mxCell>
                <mxCell id="102" value="convertAndSend(&quot;/natour/chat&quot;, message)" style="edgeStyle=none;html=1;startArrow=none;startFill=0;endArrow=block;endFill=1;entryX=1.167;entryY=0.581;entryDx=0;entryDy=0;entryPerimeter=0;" edge="1" parent="80" source="89" target="89">
                    <mxGeometry x="0.3715" y="91" relative="1" as="geometry">
                        <mxPoint x="91" y="-81" as="offset"/>
                    </mxGeometry>
                </mxCell>
                <mxCell id="81" value="withJsonConversions()" style="html=1;verticalAlign=bottom;endArrow=block;entryX=0.088;entryY=0.082;entryDx=0;entryDy=0;entryPerimeter=0;" edge="1" parent="1" source="66" target="83">
                    <mxGeometry relative="1" as="geometry">
                        <mxPoint x="1920" y="538" as="sourcePoint"/>
                        <mxPoint x="2330" y="540" as="targetPoint"/>
                    </mxGeometry>
                </mxCell>
                <mxCell id="82" value="&amp;lt;&amp;lt;create&amp;gt;&amp;gt;" style="html=1;verticalAlign=bottom;endArrow=block;" edge="1" parent="1">
                    <mxGeometry relative="1" as="geometry">
                        <mxPoint x="2345" y="580" as="sourcePoint"/>
                        <mxPoint x="2470" y="580" as="targetPoint"/>
                    </mxGeometry>
                </mxCell>
                <mxCell id="84" value="return StompSession" style="html=1;verticalAlign=bottom;endArrow=none;dashed=1;endFill=0;startArrow=block;startFill=1;" edge="1" parent="1">
                    <mxGeometry relative="1" as="geometry">
                        <mxPoint x="1900" y="480" as="sourcePoint"/>
                        <mxPoint x="2135" y="480" as="targetPoint"/>
                    </mxGeometry>
                </mxCell>
                <mxCell id="87" value="return StompSessionWithKxSerialization" style="html=1;verticalAlign=bottom;endArrow=none;dashed=1;endFill=0;startArrow=block;startFill=1;entryX=-0.09;entryY=0.913;entryDx=0;entryDy=0;entryPerimeter=0;" edge="1" parent="1" target="83">
                    <mxGeometry relative="1" as="geometry">
                        <mxPoint x="1900" y="621" as="sourcePoint"/>
                        <mxPoint x="2205" y="620" as="targetPoint"/>
                    </mxGeometry>
                </mxCell>
                <mxCell id="90" value="use()" style="html=1;verticalAlign=bottom;endArrow=block;entryX=0;entryY=0.1;entryDx=0;entryDy=0;entryPerimeter=0;exitX=1.209;exitY=0.643;exitDx=0;exitDy=0;exitPerimeter=0;" edge="1" parent="1">
                    <mxGeometry relative="1" as="geometry">
                        <mxPoint x="1902.09" y="690.06" as="sourcePoint"/>
                        <mxPoint x="2570" y="690" as="targetPoint"/>
                    </mxGeometry>
                </mxCell>
                <mxCell id="68" value="launch()" style="html=1;verticalAlign=bottom;endArrow=block;exitX=1.062;exitY=0.749;exitDx=0;exitDy=0;exitPerimeter=0;" edge="1" parent="1" target="66">
                    <mxGeometry relative="1" as="geometry">
                        <mxPoint x="1650.25" y="429.84000000000015" as="sourcePoint"/>
                        <mxPoint x="1880" y="430" as="targetPoint"/>
                    </mxGeometry>
                </mxCell>
                <mxCell id="91" value="&lt;b&gt;_uiState: MutableStateFlow&amp;lt;ChatUiState&amp;gt;&lt;/b&gt;" style="shape=umlLifeline;perimeter=lifelinePerimeter;whiteSpace=wrap;html=1;container=1;collapsible=0;recursiveResize=0;outlineConnect=0;rounded=0;shadow=0;glass=0;strokeWidth=1;verticalAlign=top;fillColor=#FFD233;" vertex="1" parent="1">
                    <mxGeometry x="2660" y="60" width="192" height="1070" as="geometry"/>
                </mxCell>
                <mxCell id="92" value="" style="html=1;points=[];perimeter=orthogonalPerimeter;fillColor=#81A1C1;strokeColor=#81A1C1;" vertex="1" parent="91">
                    <mxGeometry x="91" y="580" width="10" height="40" as="geometry"/>
                </mxCell>
                <mxCell id="105" value="" style="html=1;points=[];perimeter=orthogonalPerimeter;fillColor=#81A1C1;strokeColor=#81A1C1;" vertex="1" parent="91">
                    <mxGeometry x="91" y="820" width="10" height="40" as="geometry"/>
                </mxCell>
                <mxCell id="CONxCcbmDmu2rqYqZQRP-118" value="" style="html=1;points=[];perimeter=orthogonalPerimeter;fillColor=#81A1C1;strokeColor=#81A1C1;" vertex="1" parent="91">
                    <mxGeometry x="91" y="250" width="10" height="40" as="geometry"/>
                </mxCell>
                <mxCell id="98" value="&lt;b&gt;message: MessageCreationDto&lt;/b&gt;" style="shape=umlLifeline;perimeter=lifelinePerimeter;whiteSpace=wrap;html=1;container=1;collapsible=0;recursiveResize=0;outlineConnect=0;rounded=0;shadow=0;glass=0;strokeWidth=1;verticalAlign=top;fillColor=#FFD233;" vertex="1" parent="1">
                    <mxGeometry x="2880" y="681" width="192" height="449" as="geometry"/>
                </mxCell>
                <mxCell id="104" value="return" style="html=1;verticalAlign=bottom;endArrow=none;dashed=1;endFill=0;startArrow=block;startFill=1;entryX=-0.038;entryY=0.922;entryDx=0;entryDy=0;entryPerimeter=0;exitX=1.144;exitY=0.636;exitDx=0;exitDy=0;exitPerimeter=0;" edge="1" parent="1">
                    <mxGeometry relative="1" as="geometry">
                        <mxPoint x="1901.44" y="790.6799999999998" as="sourcePoint"/>
                        <mxPoint x="2569.62" y="790.6400000000001" as="targetPoint"/>
                    </mxGeometry>
                </mxCell>
                <mxCell id="106" value="update(messageState = &quot;&quot;, shouldScrollToBottom = true)" style="html=1;verticalAlign=bottom;endArrow=block;exitX=1.144;exitY=0.777;exitDx=0;exitDy=0;exitPerimeter=0;entryX=0.024;entryY=0.506;entryDx=0;entryDy=0;entryPerimeter=0;" edge="1" parent="1" source="66">
                    <mxGeometry x="0.4118" relative="1" as="geometry">
                        <mxPoint x="1930" y="880.06" as="sourcePoint"/>
                        <mxPoint x="2751.2400000000002" y="900.24" as="targetPoint"/>
                        <mxPoint as="offset"/>
                    </mxGeometry>
                </mxCell>
                <mxCell id="100" value="&amp;lt;&amp;lt;create&amp;gt;&amp;gt;" style="html=1;verticalAlign=bottom;endArrow=block;exitX=1.178;exitY=0.176;exitDx=0;exitDy=0;exitPerimeter=0;" edge="1" parent="1" source="89">
                    <mxGeometry relative="1" as="geometry">
                        <mxPoint x="2580" y="711.0000000000001" as="sourcePoint"/>
                        <mxPoint x="2880.092708333333" y="700" as="targetPoint"/>
                    </mxGeometry>
                </mxCell>
                <mxCell id="110" value="" style="html=1;verticalAlign=bottom;endArrow=none;dashed=1;endFill=0;startArrow=block;startFill=1;entryX=-0.258;entryY=0.689;entryDx=0;entryDy=0;entryPerimeter=0;exitX=1.244;exitY=0.136;exitDx=0;exitDy=0;exitPerimeter=0;" edge="1" parent="1" source="109" target="107">
                    <mxGeometry relative="1" as="geometry">
                        <mxPoint x="1300" y="1031" as="sourcePoint"/>
                        <mxPoint x="1556.21" y="1030.82" as="targetPoint"/>
                    </mxGeometry>
                </mxCell>
                <mxCell id="111" value="" style="html=1;verticalAlign=bottom;endArrow=none;dashed=1;endFill=0;startArrow=block;startFill=1;entryX=-0.081;entryY=0.768;entryDx=0;entryDy=0;entryPerimeter=0;exitX=1.167;exitY=0.971;exitDx=0;exitDy=0;exitPerimeter=0;" edge="1" parent="1" source="16" target="109">
                    <mxGeometry relative="1" as="geometry">
                        <mxPoint x="1070" y="1080" as="sourcePoint"/>
                        <mxPoint x="1410.78" y="1080.46" as="targetPoint"/>
                    </mxGeometry>
                </mxCell>
                <mxCell id="CONxCcbmDmu2rqYqZQRP-111" value="&lt;b&gt;editMessage:&lt;br&gt;EditText&lt;br&gt;&lt;/b&gt;" style="shape=umlLifeline;perimeter=lifelinePerimeter;whiteSpace=wrap;html=1;container=1;collapsible=0;recursiveResize=0;outlineConnect=0;rounded=0;shadow=0;glass=0;strokeWidth=1;verticalAlign=top;fillColor=#4ECB71;" vertex="1" parent="1">
                    <mxGeometry x="1241" y="50" width="90" height="1080" as="geometry"/>
                </mxCell>
                <mxCell id="CONxCcbmDmu2rqYqZQRP-112" value="" style="html=1;points=[];perimeter=orthogonalPerimeter;fillColor=#81A1C1;strokeColor=#81A1C1;" vertex="1" parent="CONxCcbmDmu2rqYqZQRP-111">
                    <mxGeometry x="40" y="80" width="10" height="40" as="geometry"/>
                </mxCell>
                <mxCell id="CONxCcbmDmu2rqYqZQRP-113" value="" style="html=1;points=[];perimeter=orthogonalPerimeter;fillColor=#81A1C1;strokeColor=#81A1C1;" vertex="1" parent="CONxCcbmDmu2rqYqZQRP-111">
                    <mxGeometry x="40" y="970" width="10" height="80" as="geometry"/>
                </mxCell>
                <mxCell id="CONxCcbmDmu2rqYqZQRP-114" value="onChange()" style="html=1;verticalAlign=bottom;endArrow=block;exitX=1.001;exitY=0.051;exitDx=0;exitDy=0;exitPerimeter=0;" edge="1" parent="1" source="4" target="CONxCcbmDmu2rqYqZQRP-112">
                    <mxGeometry relative="1" as="geometry">
                        <mxPoint x="1059" y="139.68000000000006" as="sourcePoint"/>
                        <mxPoint x="1193.83" y="140.00000000000034" as="targetPoint"/>
                    </mxGeometry>
                </mxCell>
                <mxCell id="CONxCcbmDmu2rqYqZQRP-115" value="" style="html=1;verticalAlign=bottom;endArrow=block;exitX=-0.257;exitY=0.732;exitDx=0;exitDy=0;exitPerimeter=0;entryX=1.034;entryY=0.161;entryDx=0;entryDy=0;entryPerimeter=0;dashed=1;" edge="1" parent="1" source="CONxCcbmDmu2rqYqZQRP-112" target="4">
                    <mxGeometry relative="1" as="geometry">
                        <mxPoint x="1203.84" y="149.18" as="sourcePoint"/>
                        <mxPoint x="1300" y="149.18" as="targetPoint"/>
                    </mxGeometry>
                </mxCell>
                <mxCell id="CONxCcbmDmu2rqYqZQRP-116" value="onEvent(ChatEvent.SendMessage)" style="html=1;verticalAlign=bottom;endArrow=block;entryX=-0.089;entryY=0.881;entryDx=0;entryDy=0;entryPerimeter=0;" edge="1" parent="1" target="6">
                    <mxGeometry relative="1" as="geometry">
                        <mxPoint x="1189" y="431" as="sourcePoint"/>
                        <mxPoint x="1626.49" y="430.1" as="targetPoint"/>
                    </mxGeometry>
                </mxCell>
                <mxCell id="CONxCcbmDmu2rqYqZQRP-117" value="update(message = newMessage)" style="html=1;verticalAlign=bottom;endArrow=block;exitX=1.05;exitY=0.247;exitDx=0;exitDy=0;exitPerimeter=0;" edge="1" parent="1" source="6">
                    <mxGeometry relative="1" as="geometry">
                        <mxPoint x="2130" y="330" as="sourcePoint"/>
                        <mxPoint x="2751" y="330" as="targetPoint"/>
                    </mxGeometry>
                </mxCell>
                <mxCell id="CONxCcbmDmu2rqYqZQRP-119" value="updateMessage(message: String)" style="html=1;verticalAlign=bottom;endArrow=block;edgeStyle=orthogonalEdgeStyle;" edge="1" parent="1">
                    <mxGeometry x="0.2306" y="-60" relative="1" as="geometry">
                        <mxPoint x="1650" y="319" as="sourcePoint"/>
                        <mxPoint x="1650" y="301" as="targetPoint"/>
                        <Array as="points">
                            <mxPoint x="1680" y="319"/>
                            <mxPoint x="1680" y="301"/>
                        </Array>
                        <mxPoint x="60" y="60" as="offset"/>
                    </mxGeometry>
                </mxCell>
                <mxCell id="108" value="" style="html=1;verticalAlign=bottom;endArrow=none;dashed=1;endFill=0;startArrow=block;startFill=1;exitX=1.277;exitY=0.153;exitDx=0;exitDy=0;exitPerimeter=0;" edge="1" parent="1" source="107" target="62">
                    <mxGeometry relative="1" as="geometry">
                        <mxPoint x="1654" y="1020" as="sourcePoint"/>
                        <mxPoint x="1889" y="1020" as="targetPoint"/>
                    </mxGeometry>
                </mxCell>
                <mxCell id="CONxCcbmDmu2rqYqZQRP-120" value="&lt;b&gt;sendButton:&lt;br&gt;Button&lt;br&gt;&lt;/b&gt;" style="shape=umlLifeline;perimeter=lifelinePerimeter;whiteSpace=wrap;html=1;container=1;collapsible=0;recursiveResize=0;outlineConnect=0;rounded=0;shadow=0;glass=0;strokeWidth=1;verticalAlign=top;fillColor=#4ECB71;" vertex="1" parent="1">
                    <mxGeometry x="1340" y="50" width="90" height="1080" as="geometry"/>
                </mxCell>
                <mxCell id="CONxCcbmDmu2rqYqZQRP-122" value="" style="html=1;points=[];perimeter=orthogonalPerimeter;fillColor=#81A1C1;strokeColor=#81A1C1;" vertex="1" parent="CONxCcbmDmu2rqYqZQRP-120">
                    <mxGeometry x="40" y="970" width="10" height="80" as="geometry"/>
                </mxCell>
                <mxCell id="CONxCcbmDmu2rqYqZQRP-125" value="" style="html=1;points=[];perimeter=orthogonalPerimeter;fillColor=#81A1C1;strokeColor=#81A1C1;" vertex="1" parent="CONxCcbmDmu2rqYqZQRP-120">
                    <mxGeometry x="40" y="310" width="10" height="50" as="geometry"/>
                </mxCell>
                <mxCell id="CONxCcbmDmu2rqYqZQRP-123" value="Click sendButton" style="html=1;verticalAlign=bottom;endArrow=block;entryX=0;entryY=0;exitX=1.017;exitY=0.062;exitDx=0;exitDy=0;exitPerimeter=0;" edge="1" parent="1">
                    <mxGeometry relative="1" as="geometry">
                        <mxPoint x="1050" y="360.00000000000006" as="sourcePoint"/>
                        <mxPoint x="1184.83" y="360.32000000000033" as="targetPoint"/>
                    </mxGeometry>
                </mxCell>
                <mxCell id="CONxCcbmDmu2rqYqZQRP-124" value="onClick()" style="html=1;verticalAlign=bottom;endArrow=block;exitX=1.06;exitY=0.284;exitDx=0;exitDy=0;exitPerimeter=0;" edge="1" parent="1">
                    <mxGeometry relative="1" as="geometry">
                        <mxPoint x="1194.4299999999998" y="371.12" as="sourcePoint"/>
                        <mxPoint x="1380" y="371" as="targetPoint"/>
                    </mxGeometry>
                </mxCell>
                <mxCell id="CONxCcbmDmu2rqYqZQRP-126" value="" style="html=1;verticalAlign=bottom;endArrow=block;exitX=-0.274;exitY=0.941;exitDx=0;exitDy=0;exitPerimeter=0;dashed=1;entryX=1.001;entryY=0.788;entryDx=0;entryDy=0;entryPerimeter=0;" edge="1" parent="1">
                    <mxGeometry relative="1" as="geometry">
                        <mxPoint x="1377.26" y="407.04999999999995" as="sourcePoint"/>
                        <mxPoint x="1193.84" y="407.28" as="targetPoint"/>
                    </mxGeometry>
                </mxCell>
                <mxCell id="CONxCcbmDmu2rqYqZQRP-127" value="" style="html=1;verticalAlign=bottom;endArrow=block;exitX=0.037;exitY=0.313;exitDx=0;exitDy=0;exitPerimeter=0;dashed=1;entryX=1.101;entryY=-0.004;entryDx=0;entryDy=0;entryPerimeter=0;" edge="1" parent="1" source="6" target="CONxCcbmDmu2rqYqZQRP-128">
                    <mxGeometry relative="1" as="geometry">
                        <mxPoint x="1544.26" y="340.29999999999995" as="sourcePoint"/>
                        <mxPoint x="1200" y="340" as="targetPoint"/>
                    </mxGeometry>
                </mxCell>
            </root>
        </mxGraphModel>
    </diagram>
    <diagram id="YZxylC4qOU5EGCGypoCf" name="Modifica itinerario">
        <mxGraphModel dx="3648" dy="1420" grid="1" gridSize="10" guides="1" tooltips="1" connect="1" arrows="1" fold="1" page="1" pageScale="1" pageWidth="827" pageHeight="1169" math="0" shadow="0">
            <root>
                <mxCell id="dHCDiJilXVQm328N3-cN-0"/>
                <mxCell id="dHCDiJilXVQm328N3-cN-1" parent="dHCDiJilXVQm328N3-cN-0"/>
                <mxCell id="d3S4381l-Puww9ALZbzH-0" value="Write new description" style="html=1;verticalAlign=bottom;endArrow=block;entryX=0;entryY=0;exitX=1.017;exitY=0.062;exitDx=0;exitDy=0;exitPerimeter=0;" edge="1" target="d3S4381l-Puww9ALZbzH-2" parent="dHCDiJilXVQm328N3-cN-1">
                    <mxGeometry relative="1" as="geometry">
                        <mxPoint x="319" y="429.6800000000003" as="sourcePoint"/>
                    </mxGeometry>
                </mxCell>
                <mxCell id="d3S4381l-Puww9ALZbzH-1" value="&lt;b&gt;UpdateRoute&lt;br&gt;FullDialog&lt;/b&gt;" style="shape=umlLifeline;perimeter=lifelinePerimeter;whiteSpace=wrap;html=1;container=1;collapsible=0;recursiveResize=0;outlineConnect=0;rounded=0;shadow=0;glass=0;strokeWidth=1;verticalAlign=top;fillColor=#4ECB71;" vertex="1" parent="dHCDiJilXVQm328N3-cN-1">
                    <mxGeometry x="413.83" y="350" width="90" height="1370" as="geometry"/>
                </mxCell>
                <mxCell id="d3S4381l-Puww9ALZbzH-2" value="" style="html=1;points=[];perimeter=orthogonalPerimeter;fillColor=#81A1C1;strokeColor=#81A1C1;" vertex="1" parent="d3S4381l-Puww9ALZbzH-1">
                    <mxGeometry x="40" y="80" width="10" height="180" as="geometry"/>
                </mxCell>
                <mxCell id="d3S4381l-Puww9ALZbzH-4" value="" style="html=1;points=[];perimeter=orthogonalPerimeter;fillColor=#81A1C1;strokeColor=#81A1C1;" vertex="1" parent="d3S4381l-Puww9ALZbzH-1">
                    <mxGeometry x="40" y="280" width="10" height="140" as="geometry"/>
                </mxCell>
                <mxCell id="NapufEDE8ymb2wItLIHo-16" value="" style="html=1;points=[];perimeter=orthogonalPerimeter;fillColor=#81A1C1;strokeColor=#81A1C1;" vertex="1" parent="d3S4381l-Puww9ALZbzH-1">
                    <mxGeometry x="40" y="1320" width="10" height="40" as="geometry"/>
                </mxCell>
                <mxCell id="d3S4381l-Puww9ALZbzH-5" value="&lt;b&gt;viewModel: ChatViewModel&lt;/b&gt;" style="shape=umlLifeline;perimeter=lifelinePerimeter;whiteSpace=wrap;html=1;container=1;collapsible=0;recursiveResize=0;outlineConnect=0;rounded=0;shadow=0;glass=0;strokeWidth=1;verticalAlign=top;fillColor=#4ECB71;" vertex="1" parent="dHCDiJilXVQm328N3-cN-1">
                    <mxGeometry x="833.04" y="350" width="163.17" height="1370" as="geometry"/>
                </mxCell>
                <mxCell id="d3S4381l-Puww9ALZbzH-6" value="" style="html=1;points=[];perimeter=orthogonalPerimeter;fillColor=#81A1C1;strokeColor=#81A1C1;" vertex="1" parent="d3S4381l-Puww9ALZbzH-5">
                    <mxGeometry x="76.59" y="240" width="10" height="160" as="geometry"/>
                </mxCell>
                <mxCell id="d3S4381l-Puww9ALZbzH-7" value="&amp;lt;&amp;lt;create&amp;gt;&amp;gt;" style="html=1;verticalAlign=bottom;endArrow=block;exitX=1.099;exitY=0.312;exitDx=0;exitDy=0;exitPerimeter=0;" edge="1" parent="d3S4381l-Puww9ALZbzH-5">
                    <mxGeometry relative="1" as="geometry">
                        <mxPoint x="87.57999999999993" y="309.9200000000001" as="sourcePoint"/>
                        <mxPoint x="226.96000000000004" y="310" as="targetPoint"/>
                    </mxGeometry>
                </mxCell>
                <mxCell id="d3S4381l-Puww9ALZbzH-9" value="Utente registrato" style="shape=umlLifeline;participant=umlActor;perimeter=lifelinePerimeter;whiteSpace=wrap;html=1;container=1;collapsible=0;recursiveResize=0;verticalAlign=bottom;spacingTop=36;outlineConnect=0;size=40;rounded=0;shadow=0;glass=0;labelPosition=center;verticalLabelPosition=top;align=center;strokeWidth=1;perimeterSpacing=0;" vertex="1" parent="dHCDiJilXVQm328N3-cN-1">
                    <mxGeometry x="310" y="350" width="20" height="1370" as="geometry"/>
                </mxCell>
                <mxCell id="d3S4381l-Puww9ALZbzH-10" value="" style="html=1;points=[];perimeter=orthogonalPerimeter;fillColor=#81A1C1;strokeColor=#81A1C1;" vertex="1" parent="d3S4381l-Puww9ALZbzH-9">
                    <mxGeometry x="5" y="40" width="10" height="1320" as="geometry"/>
                </mxCell>
                <mxCell id="d3S4381l-Puww9ALZbzH-11" value="&lt;i&gt;&amp;lt;&amp;lt;sealed&amp;gt;&amp;gt;&lt;br&gt;&lt;/i&gt;&lt;b&gt;UpdateRouteEvent&lt;/b&gt;" style="shape=umlLifeline;perimeter=lifelinePerimeter;whiteSpace=wrap;html=1;container=1;collapsible=0;recursiveResize=0;outlineConnect=0;rounded=0;shadow=0;glass=0;strokeWidth=1;verticalAlign=top;fillColor=#D99BFF;" vertex="1" parent="dHCDiJilXVQm328N3-cN-1">
                    <mxGeometry x="690" y="500" width="150" height="1220" as="geometry"/>
                </mxCell>
                <mxCell id="d3S4381l-Puww9ALZbzH-13" value="&lt;i&gt;&amp;lt;&amp;lt;create&amp;gt;&amp;gt;&lt;/i&gt;" style="html=1;verticalAlign=bottom;endArrow=block;exitX=1.086;exitY=0.11;exitDx=0;exitDy=0;exitPerimeter=0;" edge="1" parent="dHCDiJilXVQm328N3-cN-1">
                    <mxGeometry x="0.2011" relative="1" as="geometry">
                        <mxPoint x="464.6899999999996" y="519.8000000000002" as="sourcePoint"/>
                        <mxPoint x="690" y="520" as="targetPoint"/>
                        <mxPoint as="offset"/>
                    </mxGeometry>
                </mxCell>
                <mxCell id="d3S4381l-Puww9ALZbzH-14" value="onEvent(UpdateRouteEvent.EnteredDescription(descriptionField.text))" style="html=1;verticalAlign=bottom;endArrow=block;exitX=0.968;exitY=0.905;exitDx=0;exitDy=0;exitPerimeter=0;" edge="1" source="d3S4381l-Puww9ALZbzH-2" parent="dHCDiJilXVQm328N3-cN-1">
                    <mxGeometry relative="1" as="geometry">
                        <mxPoint x="564.3699999999999" y="639.44" as="sourcePoint"/>
                        <mxPoint x="910" y="593" as="targetPoint"/>
                    </mxGeometry>
                </mxCell>
                <mxCell id="d3S4381l-Puww9ALZbzH-15" value="&lt;b&gt;viewModelScope: CoroutineScope&lt;/b&gt;" style="shape=umlLifeline;perimeter=lifelinePerimeter;whiteSpace=wrap;html=1;container=1;collapsible=0;recursiveResize=0;outlineConnect=0;rounded=0;shadow=0;glass=0;strokeWidth=1;verticalAlign=top;fillColor=#4ECB71;" vertex="1" parent="dHCDiJilXVQm328N3-cN-1">
                    <mxGeometry x="1060" y="640" width="210" height="1080" as="geometry"/>
                </mxCell>
                <mxCell id="d3S4381l-Puww9ALZbzH-16" value="" style="html=1;points=[];perimeter=orthogonalPerimeter;fillColor=#81A1C1;strokeColor=#81A1C1;" vertex="1" parent="d3S4381l-Puww9ALZbzH-15">
                    <mxGeometry x="100" y="70" width="10" height="1000" as="geometry"/>
                </mxCell>
                <mxCell id="d3S4381l-Puww9ALZbzH-17" value="&lt;b&gt;mapper:&lt;br&gt;RouteDetailsUiMapper&lt;/b&gt;" style="shape=umlLifeline;perimeter=lifelinePerimeter;whiteSpace=wrap;html=1;container=1;collapsible=0;recursiveResize=0;outlineConnect=0;rounded=0;shadow=0;glass=0;strokeWidth=1;verticalAlign=top;fillColor=#4ECB71;" vertex="1" parent="dHCDiJilXVQm328N3-cN-1">
                    <mxGeometry x="1330" y="360" width="160" height="1360" as="geometry"/>
                </mxCell>
                <mxCell id="d3S4381l-Puww9ALZbzH-18" value="" style="html=1;points=[];perimeter=orthogonalPerimeter;fillColor=#81A1C1;strokeColor=#81A1C1;" vertex="1" parent="d3S4381l-Puww9ALZbzH-17">
                    <mxGeometry x="75" y="330" width="10" height="100" as="geometry"/>
                </mxCell>
                <mxCell id="d3S4381l-Puww9ALZbzH-21" value="mapToDomain(route: RouteDetailsUi)" style="html=1;verticalAlign=bottom;endArrow=block;" edge="1" parent="dHCDiJilXVQm328N3-cN-1">
                    <mxGeometry relative="1" as="geometry">
                        <mxPoint x="1170" y="730" as="sourcePoint"/>
                        <mxPoint x="1405" y="730" as="targetPoint"/>
                    </mxGeometry>
                </mxCell>
                <mxCell id="d3S4381l-Puww9ALZbzH-22" value="&lt;b&gt;updateRoute: UpdateRouteUseCase&lt;/b&gt;" style="shape=umlLifeline;perimeter=lifelinePerimeter;whiteSpace=wrap;html=1;container=1;collapsible=0;recursiveResize=0;outlineConnect=0;rounded=0;shadow=0;glass=0;strokeWidth=1;verticalAlign=top;fillColor=#FF9790;" vertex="1" parent="dHCDiJilXVQm328N3-cN-1">
                    <mxGeometry x="1530" y="360" width="160" height="1360" as="geometry"/>
                </mxCell>
                <mxCell id="d3S4381l-Puww9ALZbzH-23" value="" style="html=1;points=[];perimeter=orthogonalPerimeter;fillColor=#81A1C1;strokeColor=#81A1C1;" vertex="1" parent="d3S4381l-Puww9ALZbzH-22">
                    <mxGeometry x="75" y="470" width="10" height="70" as="geometry"/>
                </mxCell>
                <mxCell id="jIS7W12iPxL-Y6N_YtlJ-15" value="" style="html=1;points=[];perimeter=orthogonalPerimeter;fillColor=#81A1C1;strokeColor=#81A1C1;" vertex="1" parent="d3S4381l-Puww9ALZbzH-22">
                    <mxGeometry x="75" y="690" width="10" height="70" as="geometry"/>
                </mxCell>
                <mxCell id="d3S4381l-Puww9ALZbzH-24" value="&lt;b&gt;routeRepository: &lt;br&gt;RouteRepositoryImpl&lt;/b&gt;" style="shape=umlLifeline;perimeter=lifelinePerimeter;whiteSpace=wrap;html=1;container=1;collapsible=0;recursiveResize=0;outlineConnect=0;rounded=0;shadow=0;glass=0;strokeWidth=1;verticalAlign=top;fillColor=#85B6FF;" vertex="1" parent="dHCDiJilXVQm328N3-cN-1">
                    <mxGeometry x="1740" y="360" width="210" height="1360" as="geometry"/>
                </mxCell>
                <mxCell id="jIS7W12iPxL-Y6N_YtlJ-0" value="" style="html=1;points=[];perimeter=orthogonalPerimeter;fillColor=#81A1C1;strokeColor=#81A1C1;" vertex="1" parent="d3S4381l-Puww9ALZbzH-24">
                    <mxGeometry x="100" y="480" width="10" height="210" as="geometry"/>
                </mxCell>
                <mxCell id="jIS7W12iPxL-Y6N_YtlJ-5" value="" style="html=1;points=[];perimeter=orthogonalPerimeter;fillColor=#81A1C1;strokeColor=#81A1C1;" vertex="1" parent="d3S4381l-Puww9ALZbzH-24">
                    <mxGeometry x="100" y="600" width="10" height="110" as="geometry"/>
                </mxCell>
                <mxCell id="jIS7W12iPxL-Y6N_YtlJ-7" value="" style="html=1;points=[];perimeter=orthogonalPerimeter;fillColor=#81A1C1;strokeColor=#000000;" vertex="1" parent="d3S4381l-Puww9ALZbzH-24">
                    <mxGeometry x="105" y="500" width="10" height="180" as="geometry"/>
                </mxCell>
                <mxCell id="jIS7W12iPxL-Y6N_YtlJ-10" value="safeApiCall(Dispatchers.IO)" style="html=1;verticalAlign=bottom;endArrow=block;exitX=1.112;exitY=0.039;exitDx=0;exitDy=0;exitPerimeter=0;edgeStyle=orthogonalEdgeStyle;entryX=1.232;entryY=0.058;entryDx=0;entryDy=0;entryPerimeter=0;" edge="1" parent="d3S4381l-Puww9ALZbzH-24" source="jIS7W12iPxL-Y6N_YtlJ-0" target="jIS7W12iPxL-Y6N_YtlJ-7">
                    <mxGeometry x="-0.3849" relative="1" as="geometry">
                        <mxPoint x="160" y="510" as="sourcePoint"/>
                        <mxPoint x="320" y="488" as="targetPoint"/>
                        <Array as="points">
                            <mxPoint x="215" y="488"/>
                            <mxPoint x="215" y="510"/>
                        </Array>
                        <mxPoint as="offset"/>
                    </mxGeometry>
                </mxCell>
                <mxCell id="d3S4381l-Puww9ALZbzH-27" value="invoke(routeToInsert: Route).onEach" style="html=1;verticalAlign=bottom;endArrow=block;entryX=0.088;entryY=0.082;entryDx=0;entryDy=0;entryPerimeter=0;" edge="1" source="d3S4381l-Puww9ALZbzH-16" target="d3S4381l-Puww9ALZbzH-23" parent="dHCDiJilXVQm328N3-cN-1">
                    <mxGeometry relative="1" as="geometry">
                        <mxPoint x="1190" y="838" as="sourcePoint"/>
                        <mxPoint x="1600" y="840" as="targetPoint"/>
                    </mxGeometry>
                </mxCell>
                <mxCell id="d3S4381l-Puww9ALZbzH-28" value="updateRoute(route)" style="html=1;verticalAlign=bottom;endArrow=block;" edge="1" parent="dHCDiJilXVQm328N3-cN-1">
                    <mxGeometry relative="1" as="geometry">
                        <mxPoint x="1615" y="880" as="sourcePoint"/>
                        <mxPoint x="1840" y="880" as="targetPoint"/>
                    </mxGeometry>
                </mxCell>
                <mxCell id="d3S4381l-Puww9ALZbzH-29" value="return routeToInsert: Route" style="html=1;verticalAlign=bottom;endArrow=none;dashed=1;endFill=0;startArrow=block;startFill=1;" edge="1" parent="dHCDiJilXVQm328N3-cN-1">
                    <mxGeometry relative="1" as="geometry">
                        <mxPoint x="1170" y="780" as="sourcePoint"/>
                        <mxPoint x="1405" y="780" as="targetPoint"/>
                    </mxGeometry>
                </mxCell>
                <mxCell id="d3S4381l-Puww9ALZbzH-32" value="launch()" style="html=1;verticalAlign=bottom;endArrow=block;exitX=1.062;exitY=0.749;exitDx=0;exitDy=0;exitPerimeter=0;" edge="1" target="d3S4381l-Puww9ALZbzH-16" parent="dHCDiJilXVQm328N3-cN-1">
                    <mxGeometry relative="1" as="geometry">
                        <mxPoint x="920.25" y="729.8400000000001" as="sourcePoint"/>
                        <mxPoint x="1150" y="730" as="targetPoint"/>
                    </mxGeometry>
                </mxCell>
                <mxCell id="d3S4381l-Puww9ALZbzH-33" value="&lt;b&gt;_uiState: MutableStateFlow&amp;lt;UpdateRouteUiState&amp;gt;&lt;/b&gt;" style="shape=umlLifeline;perimeter=lifelinePerimeter;whiteSpace=wrap;html=1;container=1;collapsible=0;recursiveResize=0;outlineConnect=0;rounded=0;shadow=0;glass=0;strokeWidth=1;verticalAlign=top;fillColor=#FFD233;" vertex="1" parent="dHCDiJilXVQm328N3-cN-1">
                    <mxGeometry x="1990" y="360" width="230" height="1360" as="geometry"/>
                </mxCell>
                <mxCell id="d3S4381l-Puww9ALZbzH-36" value="" style="html=1;points=[];perimeter=orthogonalPerimeter;fillColor=#81A1C1;strokeColor=#81A1C1;" vertex="1" parent="d3S4381l-Puww9ALZbzH-33">
                    <mxGeometry x="111" y="250" width="10" height="40" as="geometry"/>
                </mxCell>
                <mxCell id="d3S4381l-Puww9ALZbzH-43" value="&lt;b&gt;descriptionField:&lt;br&gt;TextInputLayout&lt;br&gt;&lt;/b&gt;" style="shape=umlLifeline;perimeter=lifelinePerimeter;whiteSpace=wrap;html=1;container=1;collapsible=0;recursiveResize=0;outlineConnect=0;rounded=0;shadow=0;glass=0;strokeWidth=1;verticalAlign=top;fillColor=#4ECB71;" vertex="1" parent="dHCDiJilXVQm328N3-cN-1">
                    <mxGeometry x="511" y="350" width="99" height="1370" as="geometry"/>
                </mxCell>
                <mxCell id="d3S4381l-Puww9ALZbzH-44" value="" style="html=1;points=[];perimeter=orthogonalPerimeter;fillColor=#81A1C1;strokeColor=#81A1C1;" vertex="1" parent="d3S4381l-Puww9ALZbzH-43">
                    <mxGeometry x="40" y="80" width="10" height="40" as="geometry"/>
                </mxCell>
                <mxCell id="d3S4381l-Puww9ALZbzH-46" value="onChange()" style="html=1;verticalAlign=bottom;endArrow=block;exitX=1.001;exitY=0.051;exitDx=0;exitDy=0;exitPerimeter=0;" edge="1" source="d3S4381l-Puww9ALZbzH-2" target="d3S4381l-Puww9ALZbzH-44" parent="dHCDiJilXVQm328N3-cN-1">
                    <mxGeometry relative="1" as="geometry">
                        <mxPoint x="329" y="439.68000000000006" as="sourcePoint"/>
                        <mxPoint x="463.8299999999999" y="440.00000000000034" as="targetPoint"/>
                    </mxGeometry>
                </mxCell>
                <mxCell id="d3S4381l-Puww9ALZbzH-47" value="" style="html=1;verticalAlign=bottom;endArrow=block;exitX=-0.257;exitY=0.732;exitDx=0;exitDy=0;exitPerimeter=0;entryX=1.034;entryY=0.161;entryDx=0;entryDy=0;entryPerimeter=0;dashed=1;" edge="1" source="d3S4381l-Puww9ALZbzH-44" target="d3S4381l-Puww9ALZbzH-2" parent="dHCDiJilXVQm328N3-cN-1">
                    <mxGeometry relative="1" as="geometry">
                        <mxPoint x="473.8399999999999" y="449.18000000000006" as="sourcePoint"/>
                        <mxPoint x="570" y="449.18000000000006" as="targetPoint"/>
                    </mxGeometry>
                </mxCell>
                <mxCell id="d3S4381l-Puww9ALZbzH-48" value="onEvent(UpdateRouteEvent.Upload)" style="html=1;verticalAlign=bottom;endArrow=block;entryX=-0.089;entryY=0.881;entryDx=0;entryDy=0;entryPerimeter=0;exitX=1.045;exitY=0.717;exitDx=0;exitDy=0;exitPerimeter=0;" edge="1" source="d3S4381l-Puww9ALZbzH-4" target="d3S4381l-Puww9ALZbzH-6" parent="dHCDiJilXVQm328N3-cN-1">
                    <mxGeometry relative="1" as="geometry">
                        <mxPoint x="470" y="731" as="sourcePoint"/>
                        <mxPoint x="896.49" y="730.1" as="targetPoint"/>
                    </mxGeometry>
                </mxCell>
                <mxCell id="d3S4381l-Puww9ALZbzH-49" value="update(newDescription = description)" style="html=1;verticalAlign=bottom;endArrow=block;exitX=1.05;exitY=0.247;exitDx=0;exitDy=0;exitPerimeter=0;" edge="1" source="d3S4381l-Puww9ALZbzH-6" parent="dHCDiJilXVQm328N3-cN-1">
                    <mxGeometry relative="1" as="geometry">
                        <mxPoint x="1400" y="630" as="sourcePoint"/>
                        <mxPoint x="2100" y="630" as="targetPoint"/>
                    </mxGeometry>
                </mxCell>
                <mxCell id="d3S4381l-Puww9ALZbzH-50" value="setDescription(newDescription: String)" style="html=1;verticalAlign=bottom;endArrow=block;edgeStyle=orthogonalEdgeStyle;" edge="1" parent="dHCDiJilXVQm328N3-cN-1">
                    <mxGeometry x="0.2308" y="-80" relative="1" as="geometry">
                        <mxPoint x="920" y="619" as="sourcePoint"/>
                        <mxPoint x="920" y="601" as="targetPoint"/>
                        <Array as="points">
                            <mxPoint x="950" y="619"/>
                            <mxPoint x="950" y="601"/>
                        </Array>
                        <mxPoint x="80" y="80" as="offset"/>
                    </mxGeometry>
                </mxCell>
                <mxCell id="d3S4381l-Puww9ALZbzH-52" value="&lt;b&gt;updateButton:&lt;br&gt;Button&lt;br&gt;&lt;/b&gt;" style="shape=umlLifeline;perimeter=lifelinePerimeter;whiteSpace=wrap;html=1;container=1;collapsible=0;recursiveResize=0;outlineConnect=0;rounded=0;shadow=0;glass=0;strokeWidth=1;verticalAlign=top;fillColor=#4ECB71;" vertex="1" parent="dHCDiJilXVQm328N3-cN-1">
                    <mxGeometry x="620" y="350" width="90" height="1370" as="geometry"/>
                </mxCell>
                <mxCell id="d3S4381l-Puww9ALZbzH-54" value="" style="html=1;points=[];perimeter=orthogonalPerimeter;fillColor=#81A1C1;strokeColor=#81A1C1;" vertex="1" parent="d3S4381l-Puww9ALZbzH-52">
                    <mxGeometry x="40" y="310" width="10" height="50" as="geometry"/>
                </mxCell>
                <mxCell id="d3S4381l-Puww9ALZbzH-55" value="Click updateButton" style="html=1;verticalAlign=bottom;endArrow=block;entryX=0;entryY=0;exitX=1.017;exitY=0.062;exitDx=0;exitDy=0;exitPerimeter=0;" edge="1" parent="dHCDiJilXVQm328N3-cN-1">
                    <mxGeometry relative="1" as="geometry">
                        <mxPoint x="320" y="660" as="sourcePoint"/>
                        <mxPoint x="454.8299999999999" y="660.3200000000002" as="targetPoint"/>
                    </mxGeometry>
                </mxCell>
                <mxCell id="d3S4381l-Puww9ALZbzH-56" value="onClick()" style="html=1;verticalAlign=bottom;endArrow=block;exitX=1.06;exitY=0.284;exitDx=0;exitDy=0;exitPerimeter=0;" edge="1" parent="dHCDiJilXVQm328N3-cN-1">
                    <mxGeometry relative="1" as="geometry">
                        <mxPoint x="464.42999999999984" y="671.1199999999999" as="sourcePoint"/>
                        <mxPoint x="660" y="671" as="targetPoint"/>
                    </mxGeometry>
                </mxCell>
                <mxCell id="d3S4381l-Puww9ALZbzH-57" value="" style="html=1;verticalAlign=bottom;endArrow=block;exitX=-0.234;exitY=0.944;exitDx=0;exitDy=0;exitPerimeter=0;dashed=1;entryX=1.001;entryY=0.788;entryDx=0;entryDy=0;entryPerimeter=0;" edge="1" parent="dHCDiJilXVQm328N3-cN-1" source="d3S4381l-Puww9ALZbzH-54">
                    <mxGeometry relative="1" as="geometry">
                        <mxPoint x="647.2600000000002" y="707.0500000000002" as="sourcePoint"/>
                        <mxPoint x="463.84000000000015" y="707.2799999999997" as="targetPoint"/>
                    </mxGeometry>
                </mxCell>
                <mxCell id="d3S4381l-Puww9ALZbzH-12" value="" style="html=1;verticalAlign=bottom;endArrow=block;exitX=0.037;exitY=0.313;exitDx=0;exitDy=0;exitPerimeter=0;dashed=1;entryX=1.074;entryY=0.069;entryDx=0;entryDy=0;entryPerimeter=0;" edge="1" parent="dHCDiJilXVQm328N3-cN-1" source="d3S4381l-Puww9ALZbzH-6" target="d3S4381l-Puww9ALZbzH-4">
                    <mxGeometry relative="1" as="geometry">
                        <mxPoint x="814.26" y="640.3" as="sourcePoint"/>
                        <mxPoint x="470" y="640" as="targetPoint"/>
                    </mxGeometry>
                </mxCell>
                <mxCell id="jIS7W12iPxL-Y6N_YtlJ-1" value="&lt;b&gt;mapper:&lt;br&gt;RouteApiMapper&lt;/b&gt;" style="shape=umlLifeline;perimeter=lifelinePerimeter;whiteSpace=wrap;html=1;container=1;collapsible=0;recursiveResize=0;outlineConnect=0;rounded=0;shadow=0;glass=0;strokeWidth=1;verticalAlign=top;fillColor=#85B6FF;" vertex="1" parent="dHCDiJilXVQm328N3-cN-1">
                    <mxGeometry x="2240" y="360" width="160" height="1360" as="geometry"/>
                </mxCell>
                <mxCell id="jIS7W12iPxL-Y6N_YtlJ-2" value="" style="html=1;points=[];perimeter=orthogonalPerimeter;fillColor=#81A1C1;strokeColor=#81A1C1;" vertex="1" parent="jIS7W12iPxL-Y6N_YtlJ-1">
                    <mxGeometry x="75" y="540" width="10" height="60" as="geometry"/>
                </mxCell>
                <mxCell id="jIS7W12iPxL-Y6N_YtlJ-6" value="return routeRequest: RouteDto" style="html=1;verticalAlign=bottom;endArrow=none;dashed=1;endFill=0;startArrow=block;startFill=1;exitX=0.994;exitY=0.518;exitDx=0;exitDy=0;exitPerimeter=0;entryX=-0.074;entryY=0.909;entryDx=0;entryDy=0;entryPerimeter=0;" edge="1" parent="dHCDiJilXVQm328N3-cN-1" source="jIS7W12iPxL-Y6N_YtlJ-7" target="jIS7W12iPxL-Y6N_YtlJ-2">
                    <mxGeometry relative="1" as="geometry">
                        <mxPoint x="1860" y="955" as="sourcePoint"/>
                        <mxPoint x="2310" y="953" as="targetPoint"/>
                    </mxGeometry>
                </mxCell>
                <mxCell id="jIS7W12iPxL-Y6N_YtlJ-3" value="mapToDto(route: Route)" style="html=1;verticalAlign=bottom;endArrow=block;exitX=1.225;exitY=0.331;exitDx=0;exitDy=0;exitPerimeter=0;entryX=-0.107;entryY=0.325;entryDx=0;entryDy=0;entryPerimeter=0;" edge="1" parent="dHCDiJilXVQm328N3-cN-1" source="jIS7W12iPxL-Y6N_YtlJ-7" target="jIS7W12iPxL-Y6N_YtlJ-2">
                    <mxGeometry relative="1" as="geometry">
                        <mxPoint x="1860" y="920" as="sourcePoint"/>
                        <mxPoint x="2310" y="920" as="targetPoint"/>
                    </mxGeometry>
                </mxCell>
                <mxCell id="jIS7W12iPxL-Y6N_YtlJ-11" value="&lt;b&gt;api:&lt;br&gt;RouteApi&lt;/b&gt;" style="shape=umlLifeline;perimeter=lifelinePerimeter;whiteSpace=wrap;html=1;container=1;collapsible=0;recursiveResize=0;outlineConnect=0;rounded=0;shadow=0;glass=0;strokeWidth=1;verticalAlign=top;fillColor=#85B6FF;" vertex="1" parent="dHCDiJilXVQm328N3-cN-1">
                    <mxGeometry x="2420" y="360" width="160" height="1360" as="geometry"/>
                </mxCell>
                <mxCell id="jIS7W12iPxL-Y6N_YtlJ-12" value="" style="html=1;points=[];perimeter=orthogonalPerimeter;fillColor=#81A1C1;strokeColor=#81A1C1;" vertex="1" parent="jIS7W12iPxL-Y6N_YtlJ-11">
                    <mxGeometry x="75" y="620" width="10" height="60" as="geometry"/>
                </mxCell>
                <mxCell id="jIS7W12iPxL-Y6N_YtlJ-13" value="updateRoute(routeRequest.id, routeRequest)" style="html=1;verticalAlign=bottom;endArrow=block;entryX=-0.104;entryY=0.171;entryDx=0;entryDy=0;entryPerimeter=0;" edge="1" parent="dHCDiJilXVQm328N3-cN-1" target="jIS7W12iPxL-Y6N_YtlJ-12">
                    <mxGeometry x="0.1084" relative="1" as="geometry">
                        <mxPoint x="1857" y="990" as="sourcePoint"/>
                        <mxPoint x="2316.68" y="990" as="targetPoint"/>
                        <mxPoint as="offset"/>
                    </mxGeometry>
                </mxCell>
                <mxCell id="jIS7W12iPxL-Y6N_YtlJ-14" value="return Unit" style="html=1;verticalAlign=bottom;endArrow=none;dashed=1;endFill=0;startArrow=block;startFill=1;exitX=0.919;exitY=0.939;exitDx=0;exitDy=0;exitPerimeter=0;entryX=0.009;entryY=0.83;entryDx=0;entryDy=0;entryPerimeter=0;" edge="1" parent="dHCDiJilXVQm328N3-cN-1" source="jIS7W12iPxL-Y6N_YtlJ-7" target="jIS7W12iPxL-Y6N_YtlJ-12">
                    <mxGeometry relative="1" as="geometry">
                        <mxPoint x="1890" y="1038.7" as="sourcePoint"/>
                        <mxPoint x="2349" y="1040" as="targetPoint"/>
                    </mxGeometry>
                </mxCell>
                <mxCell id="jIS7W12iPxL-Y6N_YtlJ-19" value="alt" style="shape=umlFrame;whiteSpace=wrap;html=1;strokeColor=#000000;fillColor=none;recursiveResize=0;expand=0;" vertex="1" parent="dHCDiJilXVQm328N3-cN-1">
                    <mxGeometry x="1070" y="1169" width="1700" height="520.5" as="geometry"/>
                </mxCell>
                <mxCell id="jIS7W12iPxL-Y6N_YtlJ-16" value="return DataState&amp;lt;Unit&amp;gt;" style="html=1;verticalAlign=bottom;endArrow=none;dashed=1;endFill=0;startArrow=block;startFill=1;exitX=1.232;exitY=0.156;exitDx=0;exitDy=0;exitPerimeter=0;entryX=0;entryY=0.918;entryDx=0;entryDy=0;entryPerimeter=0;" edge="1" parent="dHCDiJilXVQm328N3-cN-1" source="jIS7W12iPxL-Y6N_YtlJ-15" target="jIS7W12iPxL-Y6N_YtlJ-5">
                    <mxGeometry relative="1" as="geometry">
                        <mxPoint x="1620" y="1060" as="sourcePoint"/>
                        <mxPoint x="1720" y="1061" as="targetPoint"/>
                    </mxGeometry>
                </mxCell>
                <mxCell id="jIS7W12iPxL-Y6N_YtlJ-17" value="return result: Flow&amp;lt;DataState&amp;lt;Unit&amp;gt;&amp;gt;" style="html=1;verticalAlign=bottom;endArrow=none;dashed=1;endFill=0;startArrow=block;startFill=1;entryX=-0.089;entryY=0.863;entryDx=0;entryDy=0;entryPerimeter=0;" edge="1" parent="dHCDiJilXVQm328N3-cN-1" source="d3S4381l-Puww9ALZbzH-16" target="jIS7W12iPxL-Y6N_YtlJ-15">
                    <mxGeometry relative="1" as="geometry">
                        <mxPoint x="1330.0000000000002" y="1110" as="sourcePoint"/>
                        <mxPoint x="1552.68" y="1110.06" as="targetPoint"/>
                    </mxGeometry>
                </mxCell>
                <mxCell id="NapufEDE8ymb2wItLIHo-0" value="&lt;b&gt;_eventFlow:&lt;br&gt;MutableSharedFlow&amp;lt;UiEffect&amp;gt;&lt;br&gt;&lt;/b&gt;" style="shape=umlLifeline;perimeter=lifelinePerimeter;whiteSpace=wrap;html=1;container=1;collapsible=0;recursiveResize=0;outlineConnect=0;rounded=0;shadow=0;glass=0;strokeWidth=1;verticalAlign=top;fillColor=#D99BFF;" vertex="1" parent="dHCDiJilXVQm328N3-cN-1">
                    <mxGeometry x="2600" y="360" width="180" height="1360" as="geometry"/>
                </mxCell>
                <mxCell id="jIS7W12iPxL-Y6N_YtlJ-22" value="[result is DataState.Success]" style="text;html=1;align=center;verticalAlign=middle;resizable=0;points=[];autosize=1;strokeColor=none;fillColor=none;" vertex="1" parent="NapufEDE8ymb2wItLIHo-0">
                    <mxGeometry y="820" width="170" height="20" as="geometry"/>
                </mxCell>
                <mxCell id="NapufEDE8ymb2wItLIHo-5" value="" style="html=1;points=[];perimeter=orthogonalPerimeter;fillColor=#81A1C1;strokeColor=#81A1C1;" vertex="1" parent="NapufEDE8ymb2wItLIHo-0">
                    <mxGeometry x="85" y="880" width="10" height="40" as="geometry"/>
                </mxCell>
                <mxCell id="jIS7W12iPxL-Y6N_YtlJ-23" value="[result is DataState.Error]" style="text;html=1;align=center;verticalAlign=middle;resizable=0;points=[];autosize=1;strokeColor=none;fillColor=none;" vertex="1" parent="NapufEDE8ymb2wItLIHo-0">
                    <mxGeometry x="10" y="980" width="150" height="20" as="geometry"/>
                </mxCell>
                <mxCell id="jIS7W12iPxL-Y6N_YtlJ-24" value="[result is DataState.Loading]" style="text;html=1;align=center;verticalAlign=middle;resizable=0;points=[];autosize=1;strokeColor=none;fillColor=none;" vertex="1" parent="NapufEDE8ymb2wItLIHo-0">
                    <mxGeometry y="1180" width="170" height="20" as="geometry"/>
                </mxCell>
                <mxCell id="NapufEDE8ymb2wItLIHo-3" value="" style="html=1;points=[];perimeter=orthogonalPerimeter;fillColor=#81A1C1;strokeColor=#81A1C1;" vertex="1" parent="dHCDiJilXVQm328N3-cN-1">
                    <mxGeometry x="2100" y="1200" width="10" height="40" as="geometry"/>
                </mxCell>
                <mxCell id="NapufEDE8ymb2wItLIHo-4" value="update(isUpdated = true, isLoading = false)" style="html=1;verticalAlign=bottom;endArrow=block;exitX=0.059;exitY=0.079;exitDx=0;exitDy=0;exitPerimeter=0;entryX=-0.205;entryY=0.274;entryDx=0;entryDy=0;entryPerimeter=0;" edge="1" parent="dHCDiJilXVQm328N3-cN-1" source="jIS7W12iPxL-Y6N_YtlJ-19" target="NapufEDE8ymb2wItLIHo-3">
                    <mxGeometry relative="1" as="geometry">
                        <mxPoint x="1230" y="1380" as="sourcePoint"/>
                        <mxPoint x="2409.87" y="1380.48" as="targetPoint"/>
                    </mxGeometry>
                </mxCell>
                <mxCell id="NapufEDE8ymb2wItLIHo-6" value="emit(UiEffect.ShowToast(R.id.successString))" style="html=1;verticalAlign=bottom;endArrow=block;exitX=0.059;exitY=0.079;exitDx=0;exitDy=0;exitPerimeter=0;entryX=-0.034;entryY=0.534;entryDx=0;entryDy=0;entryPerimeter=0;" edge="1" parent="dHCDiJilXVQm328N3-cN-1" target="NapufEDE8ymb2wItLIHo-5">
                    <mxGeometry relative="1" as="geometry">
                        <mxPoint x="1172.3499999999997" y="1259.9995000000004" as="sourcePoint"/>
                        <mxPoint x="2100" y="1260.8400000000001" as="targetPoint"/>
                    </mxGeometry>
                </mxCell>
                <mxCell id="NapufEDE8ymb2wItLIHo-7" value="" style="endArrow=none;dashed=1;html=1;entryX=1.001;entryY=0.272;entryDx=0;entryDy=0;entryPerimeter=0;exitX=-0.001;exitY=0.272;exitDx=0;exitDy=0;exitPerimeter=0;" edge="1" parent="dHCDiJilXVQm328N3-cN-1">
                    <mxGeometry width="50" height="50" relative="1" as="geometry">
                        <mxPoint x="1068.2999999999997" y="1320.576" as="sourcePoint"/>
                        <mxPoint x="2771.7" y="1320.576" as="targetPoint"/>
                    </mxGeometry>
                </mxCell>
                <mxCell id="NapufEDE8ymb2wItLIHo-8" value="" style="html=1;points=[];perimeter=orthogonalPerimeter;fillColor=#81A1C1;strokeColor=#81A1C1;" vertex="1" parent="dHCDiJilXVQm328N3-cN-1">
                    <mxGeometry x="2100" y="1380" width="10" height="40" as="geometry"/>
                </mxCell>
                <mxCell id="NapufEDE8ymb2wItLIHo-9" value="" style="html=1;points=[];perimeter=orthogonalPerimeter;fillColor=#81A1C1;strokeColor=#81A1C1;" vertex="1" parent="dHCDiJilXVQm328N3-cN-1">
                    <mxGeometry x="2685" y="1440" width="10" height="40" as="geometry"/>
                </mxCell>
                <mxCell id="NapufEDE8ymb2wItLIHo-10" value="update(isLoading = false)" style="html=1;verticalAlign=bottom;endArrow=block;exitX=0.059;exitY=0.079;exitDx=0;exitDy=0;exitPerimeter=0;entryX=-0.205;entryY=0.274;entryDx=0;entryDy=0;entryPerimeter=0;" edge="1" parent="dHCDiJilXVQm328N3-cN-1">
                    <mxGeometry relative="1" as="geometry">
                        <mxPoint x="1172.3499999999997" y="1389.9995" as="sourcePoint"/>
                        <mxPoint x="2100" y="1390.8400000000001" as="targetPoint"/>
                    </mxGeometry>
                </mxCell>
                <mxCell id="NapufEDE8ymb2wItLIHo-11" value="emit(UiEffect.ShowToast(R.id.errorString))" style="html=1;verticalAlign=bottom;endArrow=block;exitX=0.059;exitY=0.079;exitDx=0;exitDy=0;exitPerimeter=0;entryX=-0.034;entryY=0.534;entryDx=0;entryDy=0;entryPerimeter=0;" edge="1" parent="dHCDiJilXVQm328N3-cN-1">
                    <mxGeometry relative="1" as="geometry">
                        <mxPoint x="1172.6899999999994" y="1458.8895000000002" as="sourcePoint"/>
                        <mxPoint x="2685" y="1460.25" as="targetPoint"/>
                    </mxGeometry>
                </mxCell>
                <mxCell id="NapufEDE8ymb2wItLIHo-12" value="" style="endArrow=none;dashed=1;html=1;entryX=1.001;entryY=0.272;entryDx=0;entryDy=0;entryPerimeter=0;exitX=-0.001;exitY=0.272;exitDx=0;exitDy=0;exitPerimeter=0;" edge="1" parent="dHCDiJilXVQm328N3-cN-1">
                    <mxGeometry width="50" height="50" relative="1" as="geometry">
                        <mxPoint x="1070.0000000000002" y="1529.996" as="sourcePoint"/>
                        <mxPoint x="2773.399999999999" y="1529.996" as="targetPoint"/>
                    </mxGeometry>
                </mxCell>
                <mxCell id="NapufEDE8ymb2wItLIHo-13" value="" style="html=1;points=[];perimeter=orthogonalPerimeter;fillColor=#81A1C1;strokeColor=#81A1C1;" vertex="1" parent="dHCDiJilXVQm328N3-cN-1">
                    <mxGeometry x="2100" y="1590" width="10" height="40" as="geometry"/>
                </mxCell>
                <mxCell id="NapufEDE8ymb2wItLIHo-14" value="update(isLoading = true)" style="html=1;verticalAlign=bottom;endArrow=block;exitX=0.059;exitY=0.079;exitDx=0;exitDy=0;exitPerimeter=0;entryX=-0.205;entryY=0.274;entryDx=0;entryDy=0;entryPerimeter=0;" edge="1" parent="dHCDiJilXVQm328N3-cN-1">
                    <mxGeometry relative="1" as="geometry">
                        <mxPoint x="1172.3499999999995" y="1609.2295" as="sourcePoint"/>
                        <mxPoint x="2100.0000000000005" y="1610.0700000000002" as="targetPoint"/>
                    </mxGeometry>
                </mxCell>
                <mxCell id="NapufEDE8ymb2wItLIHo-15" value="" style="html=1;verticalAlign=bottom;endArrow=none;dashed=1;endFill=0;startArrow=block;startFill=1;entryX=-0.116;entryY=0.991;entryDx=0;entryDy=0;entryPerimeter=0;" edge="1" parent="dHCDiJilXVQm328N3-cN-1" source="NapufEDE8ymb2wItLIHo-16" target="d3S4381l-Puww9ALZbzH-16">
                    <mxGeometry relative="1" as="geometry">
                        <mxPoint x="490" y="1701" as="sourcePoint"/>
                        <mxPoint x="1100.8999999999996" y="1700.7800000000002" as="targetPoint"/>
                    </mxGeometry>
                </mxCell>
                <mxCell id="NapufEDE8ymb2wItLIHo-17" value="" style="html=1;verticalAlign=bottom;endArrow=none;dashed=1;endFill=0;startArrow=block;startFill=1;exitX=1.121;exitY=0.997;exitDx=0;exitDy=0;exitPerimeter=0;entryX=-0.04;entryY=0.926;entryDx=0;entryDy=0;entryPerimeter=0;" edge="1" parent="dHCDiJilXVQm328N3-cN-1" source="d3S4381l-Puww9ALZbzH-10" target="NapufEDE8ymb2wItLIHo-16">
                    <mxGeometry relative="1" as="geometry">
                        <mxPoint x="473.8299999999999" y="1711" as="sourcePoint"/>
                        <mxPoint x="450" y="1710" as="targetPoint"/>
                    </mxGeometry>
                </mxCell>
            </root>
        </mxGraphModel>
    </diagram>
</mxfile>